<mxfile host="app.diagrams.net" modified="2023-05-31T17:09:31.771Z" agent="Mozilla/5.0 (Windows NT 10.0; Win64; x64) AppleWebKit/537.36 (KHTML, like Gecko) Chrome/113.0.0.0 Safari/537.36" etag="i6Vfm3j3wdOquKSqs7aI" version="21.3.4" type="github">
  <diagram name="PÃ¡gina-1" id="62OaGt7q215yIqIjJ_NK">
    <mxGraphModel dx="1050" dy="580" grid="1" gridSize="10" guides="1" tooltips="1" connect="1" arrows="1" fold="1" page="1" pageScale="1" pageWidth="1654" pageHeight="1169" math="0" shadow="0">
      <root>
        <mxCell id="0" />
        <mxCell id="1" parent="0" />
        <mxCell id="NTIg3FrKbZ51pXhcyOev-5" value="" style="edgeStyle=orthogonalEdgeStyle;rounded=0;orthogonalLoop=1;jettySize=auto;html=1;" edge="1" parent="1" source="NTIg3FrKbZ51pXhcyOev-2" target="NTIg3FrKbZ51pXhcyOev-4">
          <mxGeometry relative="1" as="geometry" />
        </mxCell>
        <mxCell id="NTIg3FrKbZ51pXhcyOev-6" value="Carga ordenes a procesar" style="edgeLabel;html=1;align=center;verticalAlign=middle;resizable=0;points=[];" vertex="1" connectable="0" parent="NTIg3FrKbZ51pXhcyOev-5">
          <mxGeometry x="-0.232" y="1" relative="1" as="geometry">
            <mxPoint as="offset" />
          </mxGeometry>
        </mxCell>
        <mxCell id="NTIg3FrKbZ51pXhcyOev-12" style="edgeStyle=orthogonalEdgeStyle;rounded=0;orthogonalLoop=1;jettySize=auto;html=1;entryX=0;entryY=0.5;entryDx=0;entryDy=0;entryPerimeter=0;" edge="1" parent="1" source="NTIg3FrKbZ51pXhcyOev-2" target="NTIg3FrKbZ51pXhcyOev-25">
          <mxGeometry relative="1" as="geometry">
            <mxPoint x="566.5" y="275" as="targetPoint" />
          </mxGeometry>
        </mxCell>
        <mxCell id="NTIg3FrKbZ51pXhcyOev-13" style="edgeStyle=orthogonalEdgeStyle;rounded=0;orthogonalLoop=1;jettySize=auto;html=1;entryX=-0.008;entryY=0.698;entryDx=0;entryDy=0;entryPerimeter=0;" edge="1" parent="1" source="NTIg3FrKbZ51pXhcyOev-2" target="NTIg3FrKbZ51pXhcyOev-7">
          <mxGeometry relative="1" as="geometry">
            <Array as="points">
              <mxPoint x="420" y="341" />
              <mxPoint x="420" y="456" />
            </Array>
          </mxGeometry>
        </mxCell>
        <mxCell id="NTIg3FrKbZ51pXhcyOev-31" value="" style="edgeStyle=orthogonalEdgeStyle;rounded=0;orthogonalLoop=1;jettySize=auto;html=1;" edge="1" parent="1" source="NTIg3FrKbZ51pXhcyOev-2" target="NTIg3FrKbZ51pXhcyOev-30">
          <mxGeometry relative="1" as="geometry" />
        </mxCell>
        <mxCell id="NTIg3FrKbZ51pXhcyOev-32" value="Salida con el resultado del procesamiento de cada orden" style="edgeLabel;html=1;align=center;verticalAlign=middle;resizable=0;points=[];" vertex="1" connectable="0" parent="NTIg3FrKbZ51pXhcyOev-31">
          <mxGeometry x="0.1279" y="1" relative="1" as="geometry">
            <mxPoint as="offset" />
          </mxGeometry>
        </mxCell>
        <mxCell id="NTIg3FrKbZ51pXhcyOev-2" value="Proceso Java" style="dashed=0;outlineConnect=0;html=1;align=center;labelPosition=center;verticalLabelPosition=bottom;verticalAlign=top;shape=mxgraph.webicons.java;gradientColor=#DFDEDE" vertex="1" parent="1">
          <mxGeometry x="187.2" y="290" width="102.4" height="102.4" as="geometry" />
        </mxCell>
        <mxCell id="NTIg3FrKbZ51pXhcyOev-4" value="" style="shape=image;html=1;verticalAlign=top;verticalLabelPosition=bottom;labelBackgroundColor=#ffffff;imageAspect=0;aspect=fixed;image=https://cdn3.iconfinder.com/data/icons/document-icons-2/30/647702-excel-128.png" vertex="1" parent="1">
          <mxGeometry x="203.4" y="110" width="70" height="70" as="geometry" />
        </mxCell>
        <mxCell id="NTIg3FrKbZ51pXhcyOev-7" value="Idemia" style="image;points=[];aspect=fixed;html=1;align=center;shadow=0;dashed=0;image=img/lib/allied_telesis/computer_and_terminals/Server_Desktop.svg;" vertex="1" parent="1">
          <mxGeometry x="557.44" y="400" width="63.11" height="80" as="geometry" />
        </mxCell>
        <mxCell id="NTIg3FrKbZ51pXhcyOev-14" value="Maximage" style="image;points=[];aspect=fixed;html=1;align=center;shadow=0;dashed=0;image=img/lib/allied_telesis/computer_and_terminals/Server_Desktop.svg;" vertex="1" parent="1">
          <mxGeometry x="760.6499999999999" y="242" width="42.599999999999994" height="54" as="geometry" />
        </mxCell>
        <mxCell id="NTIg3FrKbZ51pXhcyOev-15" value="SMTP" style="verticalLabelPosition=bottom;sketch=0;aspect=fixed;html=1;verticalAlign=top;strokeColor=none;align=center;outlineConnect=0;shape=mxgraph.citrix.smtp_server;" vertex="1" parent="1">
          <mxGeometry x="760.65" y="360" width="47.75" height="57.8" as="geometry" />
        </mxCell>
        <mxCell id="NTIg3FrKbZ51pXhcyOev-16" value="CDO" style="image;sketch=0;aspect=fixed;html=1;points=[];align=center;fontSize=12;image=img/lib/mscae/Software_as_a_Service.svg;" vertex="1" parent="1">
          <mxGeometry x="756.9499999999999" y="129.99999999999997" width="50" height="50" as="geometry" />
        </mxCell>
        <mxCell id="NTIg3FrKbZ51pXhcyOev-27" style="edgeStyle=orthogonalEdgeStyle;rounded=0;orthogonalLoop=1;jettySize=auto;html=1;entryX=0.014;entryY=0.4;entryDx=0;entryDy=0;entryPerimeter=0;" edge="1" parent="1" source="NTIg3FrKbZ51pXhcyOev-25" target="NTIg3FrKbZ51pXhcyOev-16">
          <mxGeometry relative="1" as="geometry">
            <Array as="points">
              <mxPoint x="690" y="269" />
              <mxPoint x="690" y="150" />
            </Array>
          </mxGeometry>
        </mxCell>
        <mxCell id="NTIg3FrKbZ51pXhcyOev-28" style="edgeStyle=orthogonalEdgeStyle;rounded=0;orthogonalLoop=1;jettySize=auto;html=1;" edge="1" parent="1" source="NTIg3FrKbZ51pXhcyOev-25" target="NTIg3FrKbZ51pXhcyOev-14">
          <mxGeometry relative="1" as="geometry" />
        </mxCell>
        <mxCell id="NTIg3FrKbZ51pXhcyOev-29" style="edgeStyle=orthogonalEdgeStyle;rounded=0;orthogonalLoop=1;jettySize=auto;html=1;" edge="1" parent="1" source="NTIg3FrKbZ51pXhcyOev-25" target="NTIg3FrKbZ51pXhcyOev-15">
          <mxGeometry relative="1" as="geometry">
            <Array as="points">
              <mxPoint x="690" y="269" />
              <mxPoint x="690" y="389" />
            </Array>
          </mxGeometry>
        </mxCell>
        <mxCell id="NTIg3FrKbZ51pXhcyOev-25" value="Digipro" style="sketch=0;points=[[0,0,0],[0.25,0,0],[0.5,0,0],[0.75,0,0],[1,0,0],[0,1,0],[0.25,1,0],[0.5,1,0],[0.75,1,0],[1,1,0],[0,0.25,0],[0,0.5,0],[0,0.75,0],[1,0.25,0],[1,0.5,0],[1,0.75,0]];outlineConnect=0;fontColor=#232F3E;gradientColor=#F78E04;gradientDirection=north;fillColor=#D05C17;strokeColor=#ffffff;dashed=0;verticalLabelPosition=bottom;verticalAlign=top;align=center;html=1;fontSize=12;fontStyle=0;aspect=fixed;shape=mxgraph.aws4.resourceIcon;resIcon=mxgraph.aws4.ec2;" vertex="1" parent="1">
          <mxGeometry x="550" y="230" width="78" height="78" as="geometry" />
        </mxCell>
        <mxCell id="NTIg3FrKbZ51pXhcyOev-30" value="" style="shape=image;html=1;verticalAlign=top;verticalLabelPosition=bottom;labelBackgroundColor=#ffffff;imageAspect=0;aspect=fixed;image=https://cdn3.iconfinder.com/data/icons/document-icons-2/30/647702-excel-128.png" vertex="1" parent="1">
          <mxGeometry x="203.4" y="530" width="70" height="70" as="geometry" />
        </mxCell>
      </root>
    </mxGraphModel>
  </diagram>
</mxfile>
